<svg aria-hidden="true" style="position: absolute; width: 0; height: 0; overflow: hidden;" version="1.1" xmlns="http://www.w3.org/2000/svg" xmlns:xlink="http://www.w3.org/1999/xlink">
<defs>
<symbol id="icon-heart_with_border" viewBox="0 0 40 32">
<path fill="#3f51b5" style="fill: var(--color1, #3f51b5)" d="M11.813 1.543c-3.009 0.238-5.866 1.781-7.616 4.12-1 1.333-1.586 2.851-1.808 4.678-0.062 0.506-0.068 1.54-0.015 2.034 0.191 1.75 0.879 3.41 2.067 4.984 0.447 0.592 0.855 1.055 1.515 1.713 1.003 1.006 1.932 1.79 3.521 2.975 1.052 0.784 0.997 0.744 2.28 1.654 3.317 2.351 4.456 3.249 5.727 4.518 0.654 0.654 1.052 1.108 1.444 1.654 0.376 0.518 0.488 0.602 0.821 0.599 0.336-0.003 0.451-0.086 0.805-0.583 0.312-0.441 0.775-0.978 1.278-1.494 1.2-1.228 2.425-2.213 5.215-4.2 3.555-2.533 4.462-3.231 5.86-4.502 3.030-2.765 4.403-5.591 4.243-8.742-0.080-1.598-0.546-3.206-1.296-4.459-1.571-2.629-4.416-4.453-7.628-4.891-0.568-0.077-1.824-0.093-2.321-0.028-2.506 0.321-4.403 1.466-5.715 3.444-0.102 0.151-0.238 0.38-0.305 0.5-0.065 0.123-0.127 0.225-0.136 0.225-0.009-0.003-0.123-0.185-0.256-0.41-0.528-0.901-1.185-1.645-1.981-2.24-1.065-0.796-2.373-1.311-3.792-1.497-0.447-0.059-1.457-0.086-1.907-0.049zM13.825 1.929c1.188 0.188 2.206 0.562 3.101 1.142 0.879 0.571 1.666 1.382 2.222 2.296 0.154 0.253 0.534 0.987 0.577 1.114 0.009 0.028 0.086-0.096 0.179-0.293 0.654-1.352 1.469-2.317 2.577-3.052 0.944-0.626 1.993-1.024 3.194-1.207 0.444-0.068 1.577-0.096 2.098-0.049 1.759 0.154 3.468 0.765 4.937 1.765 1.614 1.099 2.824 2.583 3.478 4.274 0.278 0.707 0.466 1.475 0.602 2.435 0.062 0.429 0.052 1.793-0.015 2.253-0.164 1.099-0.522 2.166-1.058 3.144-1.071 1.947-2.848 3.774-5.86 6.020-0.744 0.552-1.065 0.784-2.932 2.114-2.771 1.972-3.965 2.928-5.172 4.132-0.62 0.623-1.099 1.173-1.463 1.685-0.268 0.383-0.349 0.447-0.537 0.447-0.083 0-0.173-0.022-0.216-0.049-0.040-0.028-0.191-0.213-0.336-0.41-0.926-1.253-2.105-2.401-3.925-3.817-0.809-0.63-1.284-0.975-3.286-2.404-3.382-2.41-4.604-3.388-5.971-4.786-1.972-2.015-2.984-3.904-3.308-6.169-0.052-0.37-0.052-1.75 0-2.175 0.059-0.469 0.238-1.339 0.364-1.753 0.676-2.234 2.228-4.123 4.41-5.379 1.154-0.66 2.617-1.151 3.873-1.29 0.16-0.018 0.343-0.040 0.401-0.046 0.284-0.031 1.759 0.009 2.068 0.059z"></path>
<path fill="#3f51b5" style="fill: var(--color1, #3f51b5)" d="M11.942 2.703c-0.059 0.006-0.241 0.028-0.401 0.046-2.071 0.235-4.163 1.25-5.647 2.743-1.17 1.173-1.898 2.549-2.222 4.197-0.503 2.546 0.043 4.774 1.716 6.992 0.728 0.969 1.827 2.067 3.191 3.194 0.886 0.728 1.926 1.506 3.888 2.898 2.41 1.71 3.62 2.623 4.675 3.533 0.824 0.713 1.737 1.629 2.277 2.29 0.17 0.21 0.318 0.38 0.333 0.38 0.012 0 0.090-0.086 0.173-0.194 0.204-0.265 0.546-0.651 0.932-1.055 1.281-1.333 2.675-2.462 5.588-4.536 2.219-1.58 3.181-2.287 4.027-2.956 1.379-1.099 2.447-2.105 3.24-3.061 2.024-2.435 2.669-4.802 2.080-7.631-0.522-2.515-2.166-4.57-4.657-5.826-1.848-0.929-3.9-1.244-5.743-0.876-1.867 0.373-3.401 1.435-4.342 3.012-0.090 0.151-0.256 0.426-0.367 0.614-0.302 0.506-0.577 1.095-0.75 1.608-0.083 0.253-0.154 0.484-0.154 0.512 0 0.123-0.049 0.040-0.114-0.188-0.154-0.552-0.478-1.305-0.75-1.747-0.074-0.12-0.201-0.336-0.281-0.484-0.691-1.259-1.66-2.185-2.904-2.787-0.639-0.309-1.25-0.491-2.052-0.617-0.287-0.046-1.5-0.086-1.737-0.059zM13.528 3.073c1.219 0.151 2.265 0.574 3.188 1.287 0.157 0.123 0.284 0.231 0.287 0.244 0 0.012-0.086-0.031-0.191-0.102-0.481-0.312-1.339-0.654-2-0.799-1.657-0.367-3.499-0.17-5.215 0.562-1.25 0.534-2.444 1.41-3.293 2.416-1.855 2.2-2.395 5.434-1.349 8.069 0.583 1.469 1.611 2.848 3.222 4.332 0.127 0.12 0.197 0.191 0.154 0.164-0.040-0.028-0.312-0.265-0.602-0.528-1.845-1.673-3.009-3.29-3.549-4.944-0.287-0.879-0.42-1.913-0.355-2.783 0.12-1.608 0.528-2.885 1.296-4.046 0.339-0.515 0.574-0.796 1.046-1.271 1.336-1.333 3.141-2.243 5.079-2.558 0.762-0.127 1.506-0.139 2.28-0.043zM27.942 3.073c1.95 0.241 3.845 1.133 5.271 2.481 1.151 1.092 1.953 2.533 2.271 4.089 0.364 1.777 0.222 3.314-0.447 4.854-0.596 1.373-1.676 2.774-3.222 4.175-0.318 0.29-0.614 0.549-0.651 0.574-0.093 0.062-0.090 0.059 0.401-0.395 1.256-1.157 2.256-2.484 2.817-3.737 0.469-1.043 0.673-2 0.673-3.166 0-1.91-0.54-3.546-1.663-5.021-0.275-0.364-0.987-1.089-1.361-1.386-1.281-1.018-2.814-1.685-4.459-1.938-0.521-0.080-1.7-0.096-2.16-0.031-1.009 0.142-1.944 0.454-2.645 0.879-0.13 0.080-0.247 0.145-0.259 0.145s0.096-0.093 0.238-0.207c1.398-1.105 3.206-1.564 5.197-1.318z"></path>
</symbol>
<symbol id="icon-heart_blue" viewBox="0 0 34 32">
<path fill="#0516ff" style="fill: var(--color2, #0516ff)" d="M8.747 0.016c-0.067 0.005-0.285 0.030-0.484 0.054-3.997 0.463-7.277 3.485-8.077 7.439-0.358 1.776-0.18 4.056 0.46 5.983 0.678 2.027 1.817 3.797 3.76 5.846 0.92 0.969 1.706 1.696 4.274 3.956 0.622 0.546 1.313 1.157 1.534 1.359 2.756 2.476 4.669 4.554 6.314 6.855l0.35 0.492h0.355l0.355-0.003 0.35-0.517c1.499-2.212 3.262-4.198 5.881-6.623 0.514-0.479 1.098-1.004 2.764-2.484 2.573-2.293 3.889-3.614 4.955-4.979 1.731-2.22 2.605-4.314 2.864-6.871 0.051-0.527 0.046-1.79-0.013-2.247-0.283-2.167-1.187-4.029-2.686-5.528s-3.364-2.406-5.528-2.686c-0.519-0.065-1.65-0.065-2.18 0-1.973 0.25-3.711 1.042-5.167 2.352-0.514 0.463-1.093 1.122-1.44 1.642-0.081 0.121-0.153 0.221-0.161 0.221s-0.081-0.1-0.161-0.221c-0.347-0.519-0.926-1.179-1.44-1.642-1.429-1.286-3.149-2.080-5.054-2.333-0.393-0.054-1.513-0.091-1.822-0.065z"></path>
</symbol>
</defs>
</svg>
